<svg width="71" height="32" viewBox="0 0 71 32" fill="none" xmlns="http://www.w3.org/2000/svg">
<path d="M0.5 27.298L1.76069 28.5745C2.20756 29.027 2.95771 28.9529 3.30742 28.4217L4.45284 26.682C4.83215 26.1059 5.66708 26.0777 6.08434 26.627L7.86959 28.977C8.30127 29.5452 9.17209 29.4914 9.53055 28.8744L11.4168 25.6275C11.8116 24.9479 12.8 24.9684 13.1663 25.6638L14.8809 28.9191C15.0539 29.2475 15.3945 29.4531 15.7657 29.4531H16.8761C17.3824 29.4531 17.8088 29.0746 17.869 28.5719L18.1704 26.0538C18.2115 25.7107 18.4269 25.4131 18.74 25.2668L20.576 24.4087C21.0043 24.2085 21.5142 24.3356 21.7985 24.7134L22.3491 25.4452C22.765 25.9979 23.603 25.9716 23.9834 25.3938L26.8975 20.9678C26.9564 20.8783 27.0006 20.7799 27.0283 20.6763L29.8625 10.0804C29.9794 9.64299 30.3757 9.33878 30.8285 9.33878H30.9379C31.3956 9.33878 31.7949 9.02799 31.9073 8.58426L33.1993 3.48219C33.4479 2.50034 34.831 2.46783 35.1255 3.43692L36.0763 6.56584C36.3526 7.47519 37.6224 7.52251 37.9656 6.63624L38.6969 4.74807C38.9086 4.20144 39.6791 4.1934 39.9022 4.73549C40.1175 5.25866 40.8524 5.27508 41.0909 4.76205L42.3884 1.97022C42.7484 1.1957 43.8509 1.19976 44.2052 1.97692L45.0863 3.9099C45.2867 4.34969 45.773 4.58317 46.2416 4.46456L47.7489 4.08301C48.0744 4.0006 48.4196 4.0871 48.6678 4.31331L50.403 5.89461C50.5541 6.03231 50.6594 6.21299 50.7047 6.41234L52.2453 13.1981C52.4663 14.1717 53.8208 14.2559 54.1607 13.3172L54.9799 11.0549C55.2488 10.3123 56.2321 10.1599 56.7132 10.7862L56.9565 11.103C57.1458 11.3494 57.4389 11.4939 57.7496 11.4939H60.5938C60.8693 11.4939 61.1229 11.3438 61.2554 11.1022C61.5908 10.491 62.5047 10.6225 62.6542 11.3035L63.233 13.9409C63.3337 14.3997 63.7401 14.7265 64.2097 14.7265H64.5085C64.9711 14.7265 65.3733 15.0438 65.481 15.4937L66.8115 21.0511C66.9848 21.775 67.86 22.0625 68.4289 21.5825L69.04 21.0668C69.2193 20.9155 69.3397 20.706 69.3802 20.475L70.0833 16.4571" stroke="#30E0A1" stroke-linecap="round"/>
</svg>
