<svg width="628" height="104" viewBox="0 0 628 104" fill="none" xmlns="http://www.w3.org/2000/svg">
<path d="M0 84.8411L4.24855 80.7499C4.64155 80.3715 5.1721 80.17 5.71724 80.1922L8.59544 80.3095C9.30304 80.3383 9.97314 79.9908 10.3572 79.3958L13.1132 75.126C13.8487 73.9866 15.4809 73.894 16.3405 74.943L18.7788 77.9183C19.2123 78.4473 19.8861 78.7181 20.5651 78.6362L24.3387 78.1811L28.4074 78.151C28.9239 78.1472 29.4218 78.3433 29.7969 78.6982L32.4626 81.2207C33.325 82.0367 34.7044 81.9261 35.4257 80.9831L38.8476 76.5098C38.9155 76.4209 38.9759 76.3265 39.0281 76.2276L42.6282 69.4008C43.2322 68.2557 44.7484 67.9773 45.7197 68.8333L48.6773 71.4399L52.3875 75.3078C53.0601 76.009 54.1394 76.1254 54.946 75.5836L57.5719 73.82C58.1016 73.4641 58.7694 73.3825 59.3693 73.6002L61.7354 74.459C62.6368 74.7861 63.6436 74.4274 64.1351 73.604L67.5665 67.8549C67.9294 67.2468 68.5868 66.876 69.295 66.8799L71.8807 66.8943C72.59 66.8982 73.2443 67.2777 73.6 67.8914L76.1977 72.374C76.9595 73.6885 78.851 73.7071 79.6385 72.4078L80.8474 70.4133C81.6711 69.0544 83.6741 69.1524 84.3612 70.5852L86.5391 75.1272C87.0955 76.2875 88.5869 76.6281 89.5918 75.8243L92.1494 73.7784C92.3806 73.5934 92.5679 73.3594 92.6977 73.0933L97.0574 64.1549C97.2561 63.7474 97.5874 63.4196 97.9969 63.2251L102.026 61.3115C102.16 61.2476 102.287 61.1688 102.405 61.0766L106.06 58.1995C106.692 57.7027 107.559 57.6318 108.263 58.0195L109.647 58.7824C110.81 59.4231 112.262 58.7741 112.561 57.4805L115.961 42.7492C116.328 41.1604 118.339 40.6545 119.414 41.8808L121.703 44.4931L124.612 48.1882C125.523 49.3449 127.329 49.1547 127.978 47.8337L130.947 41.7965C131.254 41.173 131.862 40.7533 132.554 40.688L135.673 40.3934C136.09 40.354 136.509 40.4465 136.87 40.6578L141.178 43.1755L145.74 46.3582C145.94 46.4974 146.112 46.6717 146.249 46.8727L149.272 51.3122C150.063 52.4739 151.774 52.4786 152.572 51.3214L155.623 46.8948C155.727 46.7443 155.85 46.6087 155.991 46.4918L159.805 43.3208C160.333 42.8821 161.049 42.7445 161.701 42.9565L164.906 43.997C165.303 44.126 165.65 44.3759 165.898 44.7119L170.29 50.6659C170.357 50.7559 170.431 50.8402 170.511 50.9178L175.254 55.4938L180.128 60.376L183.327 64.4716C184.154 65.5312 185.771 65.4886 186.542 64.3868L189.865 59.636L194.729 52.8677L199.363 45.8777C199.514 45.6489 199.617 45.3914 199.665 45.1212L204.336 18.7324C204.42 18.2584 204.672 17.8306 205.046 17.5274L207.673 15.3977C208.57 14.67 209.896 14.852 210.564 15.7948L212.434 18.4333C213.268 19.6106 215.037 19.5438 215.78 18.3069L216.48 17.1423C217.411 15.592 219.759 15.9761 220.147 17.7425L223.759 34.1516C223.875 34.6819 224.202 35.1419 224.665 35.426L228.484 37.7716C228.696 37.9017 228.882 38.0701 229.032 38.2683L233.232 43.8129C233.52 44.1936 233.935 44.4585 234.402 44.5598L236.929 45.1084C237.865 45.3117 238.815 44.8218 239.192 43.9405L243.296 34.3458C243.369 34.1747 243.466 34.0147 243.583 33.8704L247.802 28.6836C248.11 28.3049 248.546 28.0519 249.027 27.9723L252.437 27.4092C252.894 27.3338 253.363 27.4192 253.763 27.6508L257.686 29.9166C257.905 30.0432 258.146 30.127 258.396 30.1637L262.686 30.7926C262.816 30.8116 262.943 30.8432 263.066 30.887L266.69 32.1753C267.351 32.4102 268.086 32.282 268.628 31.8373L272.201 28.9073C272.474 28.6831 272.802 28.5354 273.151 28.4792L276.838 27.8852C277.263 27.8168 277.654 27.6135 277.954 27.3053L280.221 24.9748C281.227 23.9403 282.965 24.2798 283.508 25.617L287.059 34.3634C287.171 34.6395 287.344 34.8871 287.564 35.0881L291.604 38.776C291.922 39.0661 292.325 39.246 292.753 39.2889L295.855 39.5997C296.541 39.6684 297.213 39.3794 297.635 38.8347L301.831 33.4202L306.503 27.7681C306.63 27.6144 306.779 27.4806 306.946 27.3711L311.568 24.3326L314.878 21.4336C315.728 20.6894 317.025 20.7961 317.742 21.6693L319.156 23.3916C320.122 24.5686 321.996 24.2775 322.56 22.8629L326.169 13.8011L330.297 3.73418C330.711 2.7249 331.857 2.23341 332.874 2.62944L334.822 3.38864C335.493 3.6498 336.252 3.53089 336.81 3.07721L338.814 1.44857C339.814 0.635974 341.31 0.967066 341.874 2.12569L344.901 8.34796C345.33 9.2289 346.333 9.6697 347.272 9.3893L349.728 8.65555C350.228 8.50619 350.65 8.16735 350.904 7.71133L353.842 2.42841C354.556 1.14366 356.366 1.04298 357.219 2.24054L359.548 5.51165C359.977 6.1145 360.704 6.43107 361.438 6.33461L365.119 5.85065L369.166 5.00217C369.689 4.89257 370.234 4.99664 370.679 5.29121L374.35 7.71766C374.68 7.93603 375.068 8.05142 375.464 8.04922L379.018 8.02944C379.472 8.0269 379.915 8.17947 380.271 8.46197L384.264 11.6269C384.482 11.7991 384.732 11.9242 385.001 11.9943L388.475 12.9034C389.093 13.0649 389.596 13.5114 389.83 14.1052L394.321 25.5058L398.401 36.6768C398.819 37.8235 400.159 38.3308 401.232 37.7493L401.748 37.4697C402.91 36.8401 404.353 37.4907 404.65 38.7786L408.2 54.1679C408.535 55.622 410.288 56.2098 411.432 55.2521L413.458 53.557C413.681 53.3704 413.86 53.1376 413.984 52.8745L418.235 43.8377C418.508 43.2574 419.043 42.8432 419.673 42.724L421.688 42.3427C422.725 42.1463 423.737 42.7907 423.998 43.8141L428.133 60.0484C428.304 60.718 428.808 61.2521 429.466 61.461L433.041 62.5951C433.194 62.6437 433.352 62.6736 433.512 62.6843L437.171 62.9287C437.78 62.9694 438.374 62.73 438.785 62.2786L440.331 60.5776C441.437 59.3609 443.458 59.9249 443.774 61.5387L446.729 76.6303C447.098 78.5113 449.645 78.8468 450.488 77.1253L452.315 73.3933C452.587 72.8384 453.1 72.4403 453.705 72.3146L456.361 71.7626C457.123 71.6043 457.907 71.9021 458.372 72.526L461.685 76.9745C462.169 77.623 462.995 77.9168 463.779 77.7189L466.026 77.1519C466.823 76.9508 467.662 77.2581 468.141 77.9266L471.938 83.2284C472.124 83.4876 472.369 83.6987 472.653 83.844L476.431 85.7786C476.853 85.9948 477.338 86.0539 477.8 85.9453L481.302 85.1219C481.728 85.0217 482.109 84.7846 482.387 84.4469L485.322 80.886C486.107 79.9327 487.561 79.9125 488.373 80.8434L489.333 81.9446C490.361 83.1239 492.285 82.7186 492.75 81.2245L496.466 69.2874C496.528 69.0872 496.621 68.8981 496.742 68.7269L500.989 62.7223C501.269 62.3267 501.683 62.0462 502.154 61.9328L506.297 60.9355L508.991 60.0357C510.139 59.6522 511.362 60.3689 511.589 61.5581L515.279 80.9096C515.577 82.4704 517.566 82.9674 518.563 81.73C519.526 80.5345 521.44 80.9504 521.821 82.4378L525.648 97.4052C525.729 97.7238 525.888 98.0173 526.11 98.2599L528.951 101.365C529.815 102.309 531.332 102.21 532.066 101.16L535.413 96.3712C535.471 96.2892 535.522 96.2029 535.566 96.1132L540.373 86.4114L544.278 78.7898C544.799 77.7715 546.068 77.3976 547.058 77.97L548.729 78.9351C549.537 79.4021 550.561 79.2478 551.196 78.5635L554.974 74.4902L559.848 68.2363L563.551 62.2865C564.173 61.2858 565.522 61.0379 566.46 61.7517L569.585 64.1302L574.169 68.6636C574.354 68.8462 574.501 69.0631 574.603 69.302L578.788 79.1271C579.11 79.8846 579.864 80.367 580.687 80.3426L582.673 80.2836C583.568 80.2571 584.337 79.6384 584.554 78.7693L588.998 60.9812C589.033 60.8429 589.082 60.7086 589.145 60.5807L592.445 53.8972C593.114 52.5415 594.987 52.39 595.866 53.6205L598.574 57.4141C598.715 57.6123 598.892 57.7829 599.094 57.9177L603.661 60.9536L606.653 62.8466C607.655 63.4802 608.985 63.109 609.513 62.0483L611.97 57.1156C612.63 55.792 614.448 55.617 615.348 56.7906L618.263 60.5926L621.794 64.627C622.531 65.4693 623.816 65.5426 624.644 64.7896L628 61.7387" stroke="#3FEA9B" stroke-width="2" stroke-linejoin="round"/>
</svg>
