<svg width="22" height="20" viewBox="0 0 22 20" fill="none" xmlns="http://www.w3.org/2000/svg">
<path d="M5.18614 5.75C4.90488 6.59221 4.75 7.51282 4.75 8.4773C4.75 12.4939 7.43629 15.75 10.75 15.75C14.0637 15.75 16.75 12.4939 16.75 8.4773C16.75 7.51282 16.5951 6.59221 16.3139 5.75" stroke="#B1F128" stroke-width="1.5" stroke-linecap="round" stroke-linejoin="round"/>
<path d="M13.25 18.75C13.25 18.75 12.568 15.75 10.75 15.75C8.932 15.75 8.25 18.75 8.25 18.75" stroke="#B1F128" stroke-width="1.5" stroke-linecap="round" stroke-linejoin="round"/>
<path d="M17.2701 2.97967C17.562 4.64634 16.2503 5.75 16.2503 5.75C16.2503 5.75 14.6468 5.187 14.3549 3.52033C14.063 1.85366 15.3747 0.75 15.3747 0.75C15.3747 0.75 16.9783 1.31301 17.2701 2.97967Z" stroke="#B1F128" stroke-width="1.5" stroke-linecap="round" stroke-linejoin="round"/>
<path d="M9.75 6.75L10.75 6.25V11.25M11.75 11.25H9.75" stroke="#B1F128" stroke-width="1.5" stroke-linecap="round" stroke-linejoin="round"/>
<path d="M19.8441 9.8893C18.5627 11.1561 16.8277 10.6503 16.8277 10.6503C16.8277 10.6503 16.374 8.8776 17.6554 7.61074C18.9367 6.34388 20.6718 6.84972 20.6718 6.84972C20.6718 6.84972 21.1255 8.6224 19.8441 9.8893Z" stroke="#B1F128" stroke-width="1.5" stroke-linecap="round" stroke-linejoin="round"/>
<path d="M16.9835 15.9395C15.4835 15.3639 15.25 13.7499 15.25 13.7499C15.25 13.7499 16.5165 12.7115 18.0165 13.2871C19.5165 13.8627 19.75 15.4767 19.75 15.4767C19.75 15.4767 18.4835 16.5151 16.9835 15.9395Z" stroke="#B1F128" stroke-width="1.5" stroke-linecap="round" stroke-linejoin="round"/>
<path d="M4.51651 15.9395C6.01651 15.3639 6.25 13.7499 6.25 13.7499C6.25 13.7499 4.98349 12.7115 3.48349 13.2871C1.98349 13.8627 1.75 15.4767 1.75 15.4767C1.75 15.4767 3.01651 16.5151 4.51651 15.9395Z" stroke="#B1F128" stroke-width="1.5" stroke-linecap="round" stroke-linejoin="round"/>
<path d="M1.65564 9.8893C2.937 11.1561 4.67203 10.6503 4.67203 10.6503C4.67203 10.6503 5.12571 8.8776 3.84435 7.61074C2.563 6.34388 0.827971 6.84972 0.827971 6.84972C0.827971 6.84972 0.374291 8.6224 1.65564 9.8893Z" stroke="#B1F128" stroke-width="1.5" stroke-linecap="round" stroke-linejoin="round"/>
<path d="M4.22987 2.97967C3.93799 4.64634 5.24968 5.75 5.24968 5.75C5.24968 5.75 6.85325 5.187 7.14513 3.52033C7.43701 1.85366 6.12532 0.75 6.12532 0.75C6.12532 0.75 4.52175 1.31301 4.22987 2.97967Z" stroke="#B1F128" stroke-width="1.5" stroke-linecap="round" stroke-linejoin="round"/>
</svg>
