<svg width="14" height="22" viewBox="0 0 14 22" fill="none" xmlns="http://www.w3.org/2000/svg">
<path d="M5.51587 12.7502L6.0215 12.1787C6.61482 11.5492 7.59606 11.6232 8.0995 12.3354C8.49276 12.8919 8.46245 13.6652 8.02697 14.1851L5.51587 16.7502H8.30996" stroke="#498F00" stroke-width="1.5" stroke-linecap="round" stroke-linejoin="round"/>
<path d="M6.94556 20.7502C10.3671 20.7502 13.1409 17.8401 13.1409 14.2502C13.1409 10.6604 10.3671 7.75024 6.94556 7.75024C3.52398 7.75024 0.750244 10.6604 0.750244 14.2502C0.750244 17.8401 3.52398 20.7502 6.94556 20.7502Z" stroke="#498F00" stroke-width="1.5"/>
<path d="M4.08618 8.25024L0.750244 0.750244" stroke="#498F00" stroke-width="1.5" stroke-linecap="round" stroke-linejoin="round"/>
<path d="M9.80493 8.25024L13.1409 0.750244" stroke="#498F00" stroke-width="1.5" stroke-linecap="round" stroke-linejoin="round"/>
<path d="M9.80493 0.750244L8.85181 3.25024" stroke="#498F00" stroke-width="1.5" stroke-linecap="round" stroke-linejoin="round"/>
<path d="M7.42212 7.75024L4.56274 0.750244" stroke="#498F00" stroke-width="1.5" stroke-linecap="round" stroke-linejoin="round"/>
</svg>
