<svg width="15" height="22" viewBox="0 0 15 22" fill="none" xmlns="http://www.w3.org/2000/svg">
<path d="M5.75024 12.7502C6.07674 12.0972 6.52884 11.7502 7.25024 11.7502C7.97984 11.7502 8.75024 12.206 8.75024 13.0002C8.75024 13.6906 8.19064 14.2502 7.50024 14.2502C8.19064 14.2502 8.75024 14.8098 8.75024 15.5002C8.75024 16.2944 7.97984 16.7502 7.25024 16.7502C6.52884 16.7502 6.07674 16.4032 5.75024 15.7502" stroke="#B5B5B5" stroke-width="1.5" stroke-linecap="round" stroke-linejoin="round"/>
<path d="M7.25024 20.7502C10.8401 20.7502 13.7502 17.8401 13.7502 14.2502C13.7502 10.6604 10.8401 7.75024 7.25024 7.75024C3.66039 7.75024 0.750244 10.6604 0.750244 14.2502C0.750244 17.8401 3.66039 20.7502 7.25024 20.7502Z" stroke="#B5B5B5" stroke-width="1.5"/>
<path d="M4.25024 8.25024L0.750244 0.750244" stroke="#B5B5B5" stroke-width="1.5" stroke-linecap="round" stroke-linejoin="round"/>
<path d="M10.2502 8.25024L13.7502 0.750244" stroke="#B5B5B5" stroke-width="1.5" stroke-linecap="round" stroke-linejoin="round"/>
<path d="M10.2502 0.750244L9.25024 3.25024" stroke="#B5B5B5" stroke-width="1.5" stroke-linecap="round" stroke-linejoin="round"/>
<path d="M7.75024 7.75024L4.75024 0.750244" stroke="#B5B5B5" stroke-width="1.5" stroke-linecap="round" stroke-linejoin="round"/>
</svg>
