<svg width="24" height="24" viewBox="0 0 24 24" fill="none" xmlns="http://www.w3.org/2000/svg">
<path d="M15.5 11.9995C15.5 13.9325 13.933 15.4995 12 15.4995C10.067 15.4995 8.5 13.9325 8.5 11.9995C8.5 10.0665 10.067 8.49951 12 8.49951C13.933 8.49951 15.5 10.0665 15.5 11.9995Z" stroke="white" stroke-width="1.5"/>
<path d="M20.7906 9.15201C21.5969 10.5418 22 11.2366 22 12C22 12.7634 21.5969 13.4582 20.7906 14.848L18.8669 18.1638C18.0638 19.548 17.6623 20.2402 17.0019 20.6201C16.3416 21 15.5402 21 13.9373 21H10.0627C8.45982 21 7.6584 21 6.99807 20.6201C6.33774 20.2402 5.93619 19.548 5.13311 18.1638L3.20942 14.848C2.40314 13.4582 2 12.7634 2 12C2 11.2366 2.40314 10.5418 3.20942 9.152L5.13311 5.83621C5.93619 4.45196 6.33774 3.75984 6.99807 3.37992C7.6584 3 8.45982 3 10.0627 3H13.9373C15.5402 3 16.3416 3 17.0019 3.37992C17.6623 3.75984 18.0638 4.45197 18.8669 5.83622L20.7906 9.15201Z" stroke="white" stroke-width="1.5"/>
</svg>
