<svg preserveAspectRatio="none" width="100%" height="100%" overflow="visible" style="display: block;" viewBox="0 0 24 24" fill="none" xmlns="http://www.w3.org/2000/svg">
<g id="settings-03">
<path id="Vector" d="M15.5 11.9996C15.5 13.9326 13.933 15.4996 12 15.4996C10.067 15.4996 8.49999 13.9326 8.49999 11.9996C8.49999 10.0666 10.067 8.49961 12 8.49961C13.933 8.49961 15.5 10.0666 15.5 11.9996Z" stroke="var(--stroke-0, white)" stroke-width="1.5"/>
<path id="Vector_2" d="M20.7906 9.15201C21.5969 10.5418 22 11.2366 22 12C22 12.7634 21.5969 13.4582 20.7906 14.848L18.8669 18.1638C18.0638 19.548 17.6623 20.2402 17.0019 20.6201C16.3416 21 15.5402 21 13.9373 21H10.0627C8.45983 21 7.65841 21 6.99808 20.6201C6.33775 20.2402 5.9362 19.548 5.13312 18.1638L3.20943 14.848C2.40315 13.4582 2.00001 12.7634 2.00001 12C2.00001 11.2366 2.40315 10.5418 3.20943 9.152L5.13312 5.83621C5.9362 4.45196 6.33775 3.75984 6.99808 3.37992C7.65841 3 8.45983 3 10.0627 3H13.9373C15.5402 3 16.3416 3 17.0019 3.37992C17.6623 3.75984 18.0638 4.45197 18.8669 5.83622L20.7906 9.15201Z" stroke="var(--stroke-0, white)" stroke-width="1.5"/>
</g>
</svg>
