<svg width="36" height="41" viewBox="0 0 36 41" fill="none" xmlns="http://www.w3.org/2000/svg">
<g clip-path="url(#clip0_3370_3366)">
<path d="M17.1414 7.15004L17.533 3.51367C17.533 3.51367 25.9917 12.5207 26.7302 19.8941C27.4686 27.2676 26.6071 30.6354 17.9805 40.0564C17.9805 40.0564 33.1526 21.785 17.1525 7.15004H17.1414Z" fill="#78A627"/>
<path d="M18.2379 32.9289L17.8463 36.5652C17.8463 36.5652 9.34276 27.5582 8.6043 20.1848C7.86584 12.8113 8.72738 9.45469 17.3987 0.0336914C17.3987 0.0336914 2.14834 18.3051 18.2379 32.9289Z" fill="#78A627"/>
<path d="M17.8238 36.5427H9.35386L2.73007 26.8084C1.00699 24.291 0.100692 21.3819 -7.46024e-06 18.4616C-7.46024e-06 18.3609 -7.46024e-06 18.249 -7.46024e-06 18.1483C-0.0447628 14.9818 0.861533 11.8154 2.73007 9.08533L8.9063 0H17.3762L11.2 9.08533C9.34267 11.8154 8.43637 14.9818 8.46994 18.1483C8.46994 18.249 8.46994 18.3609 8.46994 18.4616C8.55945 21.3819 9.46574 24.291 11.1888 26.8084L17.8126 36.5427H17.8238Z" fill="#B1F128"/>
<path d="M35.3565 21.9081C35.4013 25.0746 34.495 28.241 32.6264 30.9711L26.4502 40.0564H17.9803L24.1565 30.9711C26.0138 28.241 26.9313 25.0746 26.8866 21.9081C26.8866 21.8074 26.8866 21.6955 26.8866 21.5948C26.7971 18.6745 25.8908 15.7654 24.1677 13.248L17.5327 3.51367H26.0027L32.6264 13.248C34.3495 15.7766 35.2558 18.6745 35.3453 21.5948C35.3453 21.6955 35.3453 21.8074 35.3453 21.9081H35.3565Z" fill="#B1F128"/>
</g>
<defs>
<clipPath id="clip0_3370_3366">
<rect width="35.3567" height="40.056" fill="white"/>
</clipPath>
</defs>
</svg>
