<svg width="16" height="16" viewBox="0 0 16 16" fill="none" xmlns="http://www.w3.org/2000/svg">
<path d="M2 5.6665H10C11.8856 5.6665 12.8284 5.6665 13.4142 6.25229C14 6.8381 14 7.7809 14 9.6665V10.3332C14 12.2188 14 13.1616 13.4142 13.7474C12.8284 14.3332 11.8856 14.3332 10 14.3332H6C4.11438 14.3332 3.17157 14.3332 2.58579 13.7474C2 13.1616 2 12.2188 2 10.3332V5.6665Z" stroke="#7C7C7C" stroke-linecap="square" stroke-linejoin="round"/>
<path d="M10 5.66539V2.74004C10 2.14714 9.51933 1.6665 8.92647 1.6665C8.75573 1.6665 8.58747 1.70722 8.4356 1.78529L2.5082 4.83268C2.19616 4.99311 2 5.31452 2 5.66539" stroke="#7C7C7C" stroke-linecap="round" stroke-linejoin="round"/>
</svg>
