<svg preserveAspectRatio="none" width="100%" height="100%" overflow="visible" style="display: block;" viewBox="0 0 24 24" fill="none" xmlns="http://www.w3.org/2000/svg">
<g id="align-box-middle-center">
<path id="Vector" d="M3 11.0002C3 7.25051 3 5.37564 3.95491 4.06131C4.26331 3.63684 4.6366 3.26355 5.06107 2.95515C6.3754 2.00024 8.25027 2.00024 12 2.00024C15.7497 2.00024 17.6246 2.00024 18.9389 2.95515C19.3634 3.26355 19.7367 3.63684 20.0451 4.06131C21 5.37564 21 7.25051 21 11.0002V13.0002C21 16.7499 21 18.6248 20.0451 19.9391C19.7367 20.3636 19.3634 20.7369 18.9389 21.0453C17.6246 22.0002 15.7497 22.0002 12 22.0002C8.25027 22.0002 6.3754 22.0002 5.06107 21.0453C4.6366 20.7369 4.26331 20.3636 3.95491 19.9391C3 18.6248 3 16.7499 3 13.0002V11.0002Z" stroke="var(--stroke-0, #B5B5B5)" stroke-width="1.6875" stroke-linecap="round" stroke-linejoin="round"/>
<path id="Vector_2" d="M15.9995 9.50024H7.99951M13.4995 14.5002H10.4995" stroke="var(--stroke-0, #B5B5B5)" stroke-width="1.6875" stroke-linecap="round" stroke-linejoin="round"/>
</g>
</svg>
