<svg preserveAspectRatio="none" width="100%" height="100%" overflow="visible" style="display: block;" viewBox="0 0 16 16" fill="none" xmlns="http://www.w3.org/2000/svg">
<g id="copy-01">
<path id="Vector" d="M6 10C6 8.1144 6 7.1716 6.58579 6.58579C7.1716 6 8.1144 6 10 6H10.6667C12.5523 6 13.4951 6 14.0809 6.58579C14.6667 7.1716 14.6667 8.1144 14.6667 10V10.6667C14.6667 12.5523 14.6667 13.4951 14.0809 14.0809C13.4951 14.6667 12.5523 14.6667 10.6667 14.6667H10C8.1144 14.6667 7.1716 14.6667 6.58579 14.0809C6 13.4951 6 12.5523 6 10.6667V10Z" stroke="var(--stroke-0, white)" stroke-linecap="round" stroke-linejoin="round"/>
<path id="Vector_2" d="M11.3333 6C11.3317 4.02861 11.3019 3.00747 10.728 2.30829C10.6172 2.17326 10.4934 2.04945 10.3584 1.93864C9.6208 1.33333 8.525 1.33333 6.33333 1.33333C4.14168 1.33333 3.04585 1.33333 2.30829 1.93864C2.17326 2.04945 2.04945 2.17326 1.93864 2.30829C1.33333 3.04585 1.33333 4.14168 1.33333 6.33333C1.33333 8.525 1.33333 9.6208 1.93864 10.3584C2.04945 10.4934 2.17326 10.6172 2.30829 10.728C3.00747 11.3019 4.02861 11.3317 6 11.3333" stroke="var(--stroke-0, white)" stroke-linecap="round" stroke-linejoin="round"/>
</g>
</svg>
