<svg width="32" height="32" viewBox="0 0 32 32" fill="none" xmlns="http://www.w3.org/2000/svg">
<path d="M17.333 28.666V27.9993C17.333 24.2281 17.333 22.3425 18.5046 21.1709C19.6762 19.9993 21.5618 19.9993 25.333 19.9993H25.9997M26.6663 17.7901V13.3327C26.6663 8.30436 26.6663 5.79022 25.1042 4.22811C23.5422 2.66602 21.0279 2.66602 15.9997 2.66602C10.9714 2.66602 8.45721 2.66602 6.8951 4.22811C5.33301 5.7902 5.33301 8.30436 5.33301 13.3327V19.3916C5.33301 23.7183 5.33301 25.8816 6.51443 27.3469C6.75311 27.6429 7.02275 27.9125 7.31878 28.1512C8.78409 29.3327 10.9474 29.3327 15.2741 29.3327C16.2149 29.3327 16.6851 29.3327 17.1159 29.1807C17.2055 29.1491 17.2933 29.1127 17.379 29.0717C17.7911 28.8745 18.1237 28.542 18.7889 27.8768L25.1042 21.5615C25.875 20.7907 26.2603 20.4053 26.4634 19.9152C26.6663 19.4252 26.6663 18.8801 26.6663 17.7901Z" stroke="#B5B5B5" stroke-width="2" stroke-linecap="round" stroke-linejoin="round"/>
</svg>
