<svg preserveAspectRatio="none" width="100%" height="100%" overflow="visible" style="display: block;" viewBox="0 0 24 24" fill="none" xmlns="http://www.w3.org/2000/svg">
<g id="link-03">
<path id="Vector" d="M9.52148 14.4352L14.4345 9.52222" stroke="var(--stroke-0, #B5B5B5)" stroke-width="1.5" stroke-linecap="round"/>
<path id="Vector_2" d="M12.5685 15.1077C13.3082 16.2481 13.1108 17.4171 12.2563 18.2716L9.26109 21.2668C8.28269 22.2452 6.69638 22.2452 5.71798 21.2668L2.73185 18.2807C1.75344 17.3023 1.75344 15.716 2.73185 14.7376L5.72706 11.7423C6.429 11.0404 7.76312 10.635 8.90958 11.4652M15.1083 12.5678C16.2487 13.3075 17.4177 13.1102 18.2722 12.2557L21.2674 9.26041C22.2458 8.282 22.2458 6.69568 21.2674 5.71727L18.2813 2.73112C17.3029 1.75271 15.7166 1.75271 14.7382 2.73112L11.7429 5.72636C11.041 6.4283 10.6357 7.76242 11.4659 8.90889" stroke="var(--stroke-0, #B5B5B5)" stroke-width="1.5" stroke-linecap="round" stroke-linejoin="round"/>
</g>
</svg>
