<svg preserveAspectRatio="none" width="100%" height="100%" overflow="visible" style="display: block;" viewBox="0 0 16 16" fill="none" xmlns="http://www.w3.org/2000/svg">
<g id="share-04">
<path id="Vector" d="M6.66788 2C4.70364 2.02139 3.60739 2.14619 2.879 2.87459C2 3.75358 2 5.16832 2 7.99773C2 10.8273 2 12.242 2.879 13.121C3.758 14 5.17274 14 8.00221 14C10.8317 14 12.2464 14 13.1254 13.121C13.8539 12.3925 13.9786 11.2959 14 9.33087" stroke="var(--stroke-0, #B5B5B5)" stroke-width="1.125" stroke-linecap="round" stroke-linejoin="round"/>
<path id="Vector_2" d="M9.33333 2H12C12.9428 2 13.4142 2 13.7071 2.29289C14 2.58579 14 3.05719 14 4V6.66667M13.3333 2.66667L7.33333 8.66667" stroke="var(--stroke-0, #B5B5B5)" stroke-width="1.125" stroke-linecap="round" stroke-linejoin="round"/>
</g>
</svg>
