<svg preserveAspectRatio="none" width="100%" height="100%" overflow="visible" style="display: block;" viewBox="0 0 17.29 16.5754" fill="none" xmlns="http://www.w3.org/2000/svg">
<path id="Star 18" d="M7.37691 0.921312C7.77605 -0.307103 9.51393 -0.307104 9.91306 0.92131L11.0398 4.38906C11.2183 4.93842 11.7302 5.31037 12.3079 5.31037H15.9541C17.2457 5.31037 17.7828 6.96319 16.7378 7.72239L13.788 9.86558C13.3206 10.2051 13.1251 10.8069 13.3036 11.3563L14.4303 14.824C14.8295 16.0525 13.4235 17.074 12.3785 16.3148L9.4287 14.1716C8.96139 13.832 8.32859 13.832 7.86127 14.1716L4.91143 16.3148C3.86648 17.074 2.4605 16.0525 2.85964 14.824L3.98638 11.3563C4.16488 10.8069 3.96934 10.2051 3.50202 9.86558L0.552175 7.7224C-0.492776 6.96319 0.0442578 5.31037 1.33589 5.31037H4.9821C5.55973 5.31037 6.07167 4.93842 6.25017 4.38906L7.37691 0.921312Z" fill="url(#paint0_linear_0_63)"/>
<defs>
<linearGradient id="paint0_linear_0_63" x1="8.64499" y1="5.01858" x2="18.645" y2="25.0186" gradientUnits="userSpaceOnUse">
<stop stop-color="#B1F128"/>
<stop offset="0.5625" stop-color="#00C65F"/>
<stop offset="1" stop-color="#009288"/>
</linearGradient>
</defs>
</svg>
